<svg version="1" xmlns="http://www.w3.org/2000/svg" width="1466.667" height="1466.667" viewBox="0 0 1100.000000 1100.000000"><path d="M108.4 10.8c-7.2 2.5-11.7 7.3-14.3 15.5-2 6-3.4 23.7-1.9 23.7.5 0 .4.8-.1 1.9-.6 1-.9 2-.7 2.2.3.2.7 4.7 1.1 10.1.3 5.3.7 10.5 1 11.6.2 1.1.6 3.7 1 5.8 1.2 7.9 1.6 10.1 3.6 17.8 2.3 8.9 5.9 20.1 8.5 26.1 1 2.2 1.9 4.9 2.1 6 .2 1.1.8 2.1 1.3 2.3.6.2 1 .9 1 1.5 0 1.2 4 9.7 5 10.7.3.3 1.6 2.7 3 5.4 2.3 4.7 13.7 22.5 15 23.6.3.3 2.9 3.5 5.7 7.1 5.1 6.4 14 15.2 19.8 19.6 1.7 1.2 8 5.9 14 10.4 21.6 16.2 26.7 23.5 31.5 45.7 2.6 11.8 2.6 11.9 3.9 15.9.5 1.8.7 3.3.4 3.3-.3 0-.1.6.4 1.2.6.7 1.3 2.6 1.7 4.3 1 3.9 7.3 21.4 8.7 23.9.6 1 1.2 2.7 1.4 3.7 1.3 6.8 20.9 41 28.7 50.1 1.3 1.5 3.3 4 4.6 5.6 7.4 9.6 32 31.5 45.1 40 3.1 2 5.8 4 5.9 4.4.2.5.8.8 1.4.8 1.7 0 10.1 6.3 15.1 11.2 7.5 7.5 9.3 13 10.2 30.3.5 10.3 1.3 16.9 2.6 20.3.6 1.5 1 2.9 1 3.2-.2 1 1.3 7.9 2.2 10 .3.8 1.5 4.6 2.8 8.5 4.7 15 12.7 31.8 21.3 44.7 3.2 4.8 6.4 9.2 7.2 9.9.8.6 1.4 1.5 1.4 2 0 1.1 7.6 9.6 18 19.9 9.1 9.2 18.2 16.9 30.5 26 2.2 1.6 4.5 3.3 5 3.7 2.7 2.1 15.5 10.3 16.1 10.3.3 0 2.4 1.3 4.7 2.9 2.3 1.5 8.7 5.2 14.2 8 5.5 2.9 10.7 5.6 11.5 6.1 12 6.6 57.1 24 68.8 26.5 1.7.3 3.2 1.1 3.2 1.6s-3.4 4.4-7.5 8.6c-4.1 4.3-7.5 8.1-7.5 8.5 0 .5-.7.8-1.5.8s-1.5.4-1.5.8c0 .7-29.7 31.2-30.4 31.2-.2 0-3.1 2.6-6.4 5.8-3.4 3.1-7.8 7-9.8 8.7-2 1.6-4.1 3.5-4.8 4-.6.6-3.1 2.6-5.6 4.5-2.5 1.9-4.7 3.7-5 4-.3.3-3.4 2.6-7 5.1-3.6 2.4-6.7 4.7-7 5-.3.3-4.5 3-9.5 5.9-4.9 3-9.2 5.7-9.5 6-.7.7-4.4 2.8-13.8 7.7-7 3.6-14.6 6.5-21.2 8-4.4 1-18.1.4-26-1.2-9.3-1.8-42.4-14.2-55.5-20.8-10.8-5.3-19.4-11.6-27.3-19.6-9.8-10.1-10.2-10.6-13.9-17.2-5.5-9.7-8.5-18.6-9.8-28.4-.3-2.1-.8-4.1-1-4.3-.2-.2 0-1.5.5-2.8.6-1.6.6-2.4-.1-2.4-.6 0-.8-.3-.6-.8.4-.6 1.6-10.6 2-16 0-.6.4-1.2.9-1.2s.6-.4.3-1c-1.7-2.8 12.5-37.6 17.8-43.4.9-1.1 1.7-2.3 1.7-2.7 0-.9 8.7-13.7 10.7-15.7.7-.7 1.3-1.7 1.3-2 0-.4 1-1.9 2.3-3.3 3.3-3.7 9.2-14.5 10.2-18.5.3-1.1.8-3.5 1.3-5.4 2.1-8.8-3.6-20.1-12.3-24.4-5.5-2.7-13.3-2.9-19-.5-1.6.7-3.3 1.2-3.7 1.1-.5-.1-.8.2-.8.7 0 .5-.9 1.3-2.1 1.6-3.5 1.2-13.5 12-19.9 21.6-3.3 5-6 9.2-6 9.4 0 .3-1.9 3.7-4.3 7.7-4.1 7.1-11.2 21.1-13.7 27.3-2.2 5.3-8 23.5-8.5 26.7-.3 1.7-.7 3.4-.9 3.7-.2.3-.7 2.8-1 5.5-.4 2.7-.9 5.3-1.1 5.6-.7 1.2-1.9 18-1.8 26.5 0 8.7.8 17.7 2.4 25.8.5 2.9 1.2 6.5 1.5 8.2.3 1.6.9 3.4 1.5 3.9.5.6.9 2.2.9 3.7s.5 3.1 1 3.4c.6.3 1 1.3 1 2.1 0 2.4 7 16 12.5 24.4 8.9 13.5 26.1 28.9 40.5 36.2 1.4.7 2.7 1.5 3 1.8.5.5 6 3.2 7 3.5.3 0 2.2.8 4.3 1.8 7.1 3.3 10.3 4.6 22.2 9.2 6.6 2.5 12.9 5 14 5.5 5.6 2.5 13.1 5.7 13.5 5.7.5 0 10.6 3.1 13 4 2.5 1 4.6 1.5 11 2.8 2.8.5 12.9 1.7 14.5 1.7 7.6-.1 22-1.3 25.5-2.1 2.5-.5 5.9-1.2 7.6-1.5 15-2.7 45.6-16.6 65.9-30 8.6-5.7 21.8-15.1 27-19.3 22.4-17.9 49.8-44.3 63.5-61.3 2.5-3 4.7-5.7 5-6 1.5-1.3 14.3-18.4 19.2-25.5 7.7-11.3 10.2-17.5 10.1-25.5 0-3.6-.2-7.2-.5-8-.6-2.3-4.4-8.3-6.5-10.4-2.7-2.7-11.6-8.6-13-8.6-.7 0-1.3-.5-1.3-1 0-.6-.7-1-1.5-1s-4.5-1.5-8.2-3.4c-3.8-1.9-12.6-6.1-19.8-9.4-21.1-9.7-26.6-12.2-34.9-16.3-4.4-2.1-8.5-3.9-9.2-3.9-.7 0-1.4-.3-1.6-.8-.4-.9-13-7.2-14.6-7.2-.7 0-1.2-.3-1.2-.8 0-.4-1.4-1.3-3.1-2.1-4.3-1.9-17.3-9.4-18-10.4-.3-.5-1-.9-1.5-1-1.1-.1-13.4-7.9-19.4-12.3-2.5-1.9-5-3.7-5.5-4.1-20.4-15.1-39.3-38.4-49.9-61.3-2.9-6.3-8.3-21-9-24.5-.1-.6-.5-1.9-.9-3-.3-1.1-.8-3.2-1.1-4.8-.3-1.5-.8-3.6-1.1-4.7-.6-1.8-.3-1.8 5.2.6 3.2 1.4 7.4 3.4 9.3 4.4 4.9 2.5 25 12 25.5 12 .2 0 4.8 2.1 10.2 4.6 5.4 2.6 12.7 6 16.2 7.6 3.5 1.6 9.6 4.5 13.5 6.4 3.9 1.8 7.6 3.4 8.3 3.4.6 0 1.3.3 1.5.7.2.5 8.3 4.8 18.2 9.8 9.8 4.9 26.2 13.3 36.5 18.5 24 12.3 39.1 18.3 57.6 23.2 7.3 1.9 19.4 1.4 24.8-1 14.7-6.6 18-19.9 8.3-32.7-1.7-2.2-3.8-4.6-4.8-5.3-.9-.7-2.3-1.8-3-2.5-2.2-2-12.7-7.3-21-10.6-4.3-1.7-8.6-3.5-9.5-4-1-.6-5.8-2.8-10.8-4.9-4.9-2.2-11.9-5.3-15.5-7-3.6-1.6-8.6-3.9-11.2-5.1-2.6-1.1-11.8-5.5-20.5-9.7-15-7.3-24.2-11.6-25.3-11.9-.3-.1-3-1.3-6-2.7-3-1.4-11.3-5.1-18.5-8.3-7.1-3.1-15.5-6.8-18.5-8.2-3-1.4-6.4-2.9-7.5-3.4-1.1-.4-5.8-2.5-10.5-4.7-4.7-2.1-11.4-5.1-15-6.7-9.7-4.4-42.1-20.9-46.8-23.9-2.3-1.4-4.4-2.6-4.7-2.6-.2 0-2.9-1.6-5.9-3.5-3-1.9-6-3.5-6.6-3.5-.5 0-1-.4-1-.9s-.8-1.2-1.9-1.6c-1-.3-3.1-1.7-4.7-3-1.6-1.4-3.4-2.5-4.1-2.5-.6 0-1.3-.3-1.5-.8-.1-.4-3.3-2.9-7-5.5-3.8-2.6-6.8-5.2-6.8-5.8 0-.5-.4-.8-.8-.6-3 .8-35.7-31.9-43.2-43.3-.8-1.2-2.9-4.1-4.5-6.4-9.9-13.4-26.8-47.7-25.4-51.4.2-.5 2.7.1 5.4 1.4 6.7 3.1 14.5 6.6 23 10.2 3.9 1.6 9.7 4.2 13 5.7 3.3 1.5 8.7 4 12 5.5 25.8 11.8 40 18.6 46.7 22 3.1 1.7 6.4 3 7.2 3 .8 0 1.6.3 1.8.7.2.5 11.5 6.4 25.1 13.3 13.6 6.9 33.7 17 44.5 22.5 10.8 5.5 23.3 11.7 27.7 13.7 13.1 6 21.5 9.8 22 9.8.2 0 1.6.5 3.2 1.2 1.5.6 3.1 1.2 3.6 1.3.4.2.9.4 1.2.5.3.1.8.3 1.3.4.4.1 1.2.5 1.8.9 4 2.5 33.4 10.3 33.4 8.8 0-.3 2.5-.7 5.5-.8 6.9-.2 15.7-4.5 19.8-9.6 7.2-8.8 2-22.7-12.1-32.6-5.8-4.1-42-21.5-74.8-36.1-6.6-3-13.3-6-19.4-8.8-3-1.4-5.7-2.6-6-2.7-1.5-.5-5.5-2.2-13.8-6.1-5.2-2.4-9.5-4.4-9.7-4.4-.3 0-4.5-2-26-12-7.3-3.4-23.2-10.9-38-18-6-2.9-14.1-6.7-18-8.5-3.8-1.8-11.3-5.3-16.5-7.8-5.2-2.4-11.7-5.5-14.5-6.7-2.7-1.2-8.6-4-13-6.2s-8.2-3.9-8.5-4c-.6 0-5.5-2.2-20.6-9.3-6.5-3.1-12.3-5.7-12.8-5.8-.5-.1-1.8-.8-2.7-1.6-1-.8-2.4-1.6-3.1-1.7-2.8-.5-33.6-18.8-35.8-21.3-.3-.3-2.5-2-4.9-3.6-4.4-2.9-24.7-22.5-28.6-27.5-7.7-9.9-12.4-18.1-20.5-36.5-1-2.2-4.8-13-8.4-24-1.3-3.9-2.7-7.8-3.1-8.7-.8-1.9-1.1-2 8 1.7 1.1.5 2.2.9 2.5 1 1 .3 5.7 2.4 11.5 5 6.2 2.8 9.3 4 11 4.6.6.1 3.9 1.7 7.5 3.5 3.6 1.7 9 4.2 12 5.5 3 1.3 5.8 2.8 6.2 3.3.4.6.8.8.8.4 0-.6 10.8 4.2 17.2 7.8 1.5.8 3 1.5 3.3 1.5.4-.1 17.2 8 46.5 22.2 6.9 3.3 12.8 6 13.3 5.9.4-.1.7.3.7.9 0 .5.4.8.9.5.5-.4 1.1-.3 1.3.1.3.7 13.4 7.5 14.8 7.8.3 0 6.1 2.8 13 6.2 24.3 11.9 27.3 13.3 28.7 13.3.7 0 1.3.4 1.3.9s1 1.3 2.2 1.6c1.3.4 6.1 2.5 10.8 4.7 4.7 2.3 11.4 5.4 14.9 7 3.6 1.6 7.9 3.5 9.5 4.3 15.4 7 25.6 11.2 26 10.7.3-.3.6 0 .6.6 0 .7.3 1.1.7 1 .5-.1 2.4.5 4.3 1.4 1.9.8 6.4 2.8 10 4.3 3.6 1.5 8.3 3.5 10.5 4.5 2.2 1 6.9 3 10.5 4.5 3.6 1.5 8.1 3.5 10 4.3 1.9.9 3.7 1.6 4 1.7.3.1 2.5 1.1 5 2.2 11.1 5 17.3 7.9 28.8 13.4 6.7 3.2 12.3 5.8 12.5 5.7.1 0 2.5 1.3 5.2 2.8 2.8 1.6 6.8 3.8 9 4.9 2.2 1.1 4.2 2.3 4.3 2.7.2.5 1.2.8 2.2.8 1 0 2.2.5 2.5 1 .4.6 2.7 2.2 5.3 3.5 9.8 5.2 20.3 11.9 36.2 22.9 5.7 3.9 17.9 13.5 20.2 15.8 1 1 1.8 1.6 1.8 1.4 0-.2 1.5 1 3.3 2.7 12.9 12.2 16.8 16.2 21.7 21.7 3 3.5 6 6.8 6.5 7.4 1.2 1.2 12.2 16.2 14.3 19.2 7.9 11.9 13.4 21.2 16.7 28.1.5 1.3 1.3 2.3 1.8 2.3.4 0 .7.4.7.9s2.3 5.8 5.1 11.8c6.7 14.4 8.7 19 9.1 21.3.2.8.6 1.7.9 2 1.4 1.2 8.2 23.9 9.4 31.4.2 1.5.7 3.5.9 4.5.3.9.8 3.2 1 5.1.3 1.9.7 4.4 1 5.5.2 1.1.7 4.9 1.1 8.5.4 3.6.9 7.8 1.1 9.5 3.4 27 1.5 72.4-4.1 98.5-.3 1.4-.8 4-1.1 5.9-2.1 12.7-10.1 39.8-15.6 52.6-1.6 3.8-2.9 7.2-3 7.5-.3 3.6-21.5 45.3-23.8 47-.4.3-1.5 2.1-2.5 4s-2.1 3.7-2.4 4c-.3.3-2.4 3.2-4.6 6.5-2.2 3.3-4.3 6.2-4.7 6.3-.5.2-.8 1-.8 1.8s-.3 1.4-.7 1.4c-.5 0-2.4 2.3-4.3 5s-3.8 5-4.2 5c-.5 0-.8.4-.8 1 0 .5-.8 1.8-1.7 2.8-1 1-4.5 4.9-7.7 8.6-16.1 18.4-47.8 46.9-69.2 62.1-4.2 3-12.7 9.2-14.9 11-1 .8-2.5 1.5-3.1 1.5-.7 0-1.4.4-1.6.9-.1.4-3.7 3-7.8 5.7-8.3 5.3-7.8 5.1-20.5 11.8-10.5 5.6-14.6 8.5-19.8 13.9-6.3 6.7-7.8 16.2-4 26 2.4 6.4 12.2 20.7 19.3 28.4 1.1 1.2 2 2.4 2 2.6 0 .1 5.5 8.7 12.3 19 14.1 21.6 19.8 30.3 21.2 32.6 3.4 5.5 11.1 16.7 11.8 16.9.4.2.7.8.7 1.3 0 1.1 6 9.2 7.3 9.7.4.2.7.8.7 1.4 0 .5.6 1.5 1.3 2.2.6.7 2.3 2.8 3.7 4.6 1.4 1.8 3.3 4.2 4.3 5.4 8 9.3 12.5 14.2 18.4 19.9 6.5 6.2 9.3 8.7 19.2 16.7 2.4 1.9 4.9 4.1 5.6 4.7.8.7 1.8 1.3 2.2 1.3.5 0 1.8.8 2.9 1.7 3.2 2.9 9.9 7.3 11.2 7.3.7 0 1.2.4 1.2 1 0 1.1.6 1.4 21.7 11.8 19.5 9.7 21.5 10.7 22.5 10.8.4.1.9.2 1.1.4.1.1.9.3 1.7.5 1.3.3 20.3 6.6 25 8.3.8.3 2 .6 2.5.7 13.3 3.3 23.1 5.5 27.5 6.4 8.6 1.7 17.6 3.2 20.5 3.6 1.1.1 2 .3 2 .4 0 .1 2.3.4 5 .6 2.8.3 6.8.7 9 .9 11.3 1.4 18.6 2 34.5 3.2 13.7.9 50.9 1.7 68 1.4.8 0 5.7.1 10.8.2 5.2.2 9.6 0 9.8-.4.3-.4 1.5-.4 2.7 0 1.9.7 8.4.8 11.2.2.6-.1 1.5-.1 2 0 .6.1 3.3.1 6 0 5.5-.1 6.9-.1 8.8.1 4.6.4 23.7-1.5 31.6-3.1 10.7-2.2 27.4-7.5 30.9-9.8 1.2-.8 2.2-1 2.2-.6 0 .5.4.4.8-.2.4-.6 3.2-2.4 6.2-4s6-3.3 6.5-3.7c.6-.4 2.5-1.8 4.3-3.2 4.8-3.4 10.2-8.5 14.2-13.4 1.9-2.4 4.1-5 4.8-5.7.7-.8 1-1.4.6-1.4-.3 0-.2-.6.4-1.3 7.1-8.7 11.3-29.3 8.9-43.2-1.1-6.7-3.7-16.2-5.3-20-1-2.2-1.8-4.5-2-5-.6-3.2-9.8-15.1-16.9-22-9.2-9-23.3-17.9-38-24-4.9-2-10.3-4.3-11.9-5.1-1.6-.8-3.5-1.4-4.3-1.4-.7 0-2.1-.4-3.1-1-.9-.5-9.6-3.6-19.2-7-9.6-3.3-19-6.7-20.8-7.5-1.8-.8-3.7-1.5-4.3-1.5-.6 0-3.1-1-5.7-2.2-2.6-1.2-4.9-2.2-5.2-2.3-.9-.1-18.5-8.9-19-9.4-.3-.4-1.7-1.2-3.1-1.9-1.4-.8-3.8-2.3-5.3-3.5-1.4-1.2-4-3.3-5.7-4.7-5-4-12.5-11.7-19.2-20-7.5-9.1-26.7-39.3-26.7-41.8 0-.7-.4-1.2-.9-1.2s-1.4-1.5-2.2-3.3c-.7-1.7-1.5-3.4-1.8-3.7-.3-.3-7.5-14.4-16-31.5-18.4-37.2-21.5-42-29.8-46.7-8.1-4.7-20.7-2.6-26.7 4.3-4.4 5.2-5.6 9.7-5.2 19.3.4 7.7 2.1 14.2 6.4 23.6.8 1.9 1.5 4.1 1.5 4.7 0 .7.4 1.3.9 1.3.4 0 .7.3.6.7-.6 1.9 16.9 36.7 25.6 51.2 3.1 5.1 5.6 9.7 5.6 10.2s.5.9 1 .9c.6 0 1 .5 1 1 0 1.4 16.5 26 25.3 37.8 7.5 10.1 19.2 22.4 27.2 28.7 2.8 2.2 5.2 4.2 5.5 4.5 1.2 1.3 15.6 10.6 20.3 13.2 5.4 2.9 23.8 12.1 24.7 12.3.3.1 2.8 1.2 5.5 2.5 2.8 1.2 5.6 2.3 6.3 2.3.6 0 1.2.4 1.2.9 0 .4.3.7.8.6.4-.2 3.9 1 7.7 2.5 3.9 1.6 7.9 3.2 9 3.7 1.1.4 3.8 1.5 6 2.5s4.7 1.9 5.5 2c2.3.4 22.8 8.8 30 12.4 19.2 9.6 29.1 20.9 29.5 33.9.3 11.1-6.5 19.2-20.5 24.5-4.6 1.7-17.3 4.8-18.7 4.6-.4-.1-1 0-1.3.1-1.1.5-7.1.9-19.4 1.5-7.1.3-13.2.7-13.4 1-.3.2-1.3 0-2.3-.6-1.4-.7-1.9-.6-1.9.2s-.4.8-1.3.1c-.8-.7-1.8-.7-2.7-.2-.9.5-1.9.5-2.7-.2-.9-.7-1.3-.7-1.3.2 0 .9-.4.9-1.3.2-.8-.7-1.8-.7-2.7-.2-.9.5-1.9.5-2.7-.1-.8-.7-1.9-.7-3.3.1-1.4.8-2.5.8-3.3.1-.8-.6-1.8-.6-2.7-.1-.9.5-1.9.5-2.7-.1-.8-.7-1.8-.7-3.2.1-1.5.7-2.1.7-2.1 0s-.6-.7-2.1 0c-1.4.8-2.4.8-3.2.1-.8-.6-1.8-.6-2.7-.1-.9.5-1.9.5-2.7-.1-.8-.7-1.9-.7-3.3.1-1.4.8-2.5.8-3.3.1-.8-.6-1.8-.6-2.7-.1-.8.5-1.8.6-2.3.3-.4-.2-10.1-.7-21.5-.9-11.4-.2-23.6-.6-27.2-.8-12.5-.8-24.5-1.8-27-2.1-1.4-.2-3.8-.6-5.5-.9-1.6-.2-5.2-.7-8-1.1-8.7-1.1-11.9-1.6-15.9-2.6-2.1-.6-4.1-.8-4.4-.5-.3.3-1.1.1-1.8-.5s-2.6-1.1-4.3-1.1c-1.7-.1-3.1-.5-3.1-.9 0-.5-.6-.6-1.4-.3-.8.3-2.3.1-3.4-.5s-3.3-1.3-5-1.6c-3.4-.6-23.4-6.9-26.7-8.4-1.1-.5-4-1.8-6.5-2.7-6.8-2.8-28.3-13.6-29.8-15.1-.7-.7-1.9-1.3-2.7-1.3-.7 0-1.5-.3-1.7-.8-.1-.4-3.2-2.7-6.8-5.1-3.6-2.5-6.6-4.8-6.8-5.3-.2-.4-.9-.8-1.5-.8-2 0-19.2-16.2-26.7-25-7.1-8.3-15-18.9-15-20 0-.5-.4-1-1-1-.5 0-1-.6-1-1.4 0-.8-.4-1.6-.9-1.8-1.1-.4-23.1-34.5-23.1-35.8 0-.6-.4-1-.8-1s-1.6-1.5-2.7-3.3c-1-1.7-3.8-5.8-6.1-9-5-6.7-9.8-16.3-8.9-17.7.3-.6.2-1-.4-1-.5 0-.8-2.1-.6-4.9.3-3.7 1.3-6.2 3.9-9.8 4.3-6 5.2-6.7 18.4-15.5 9.1-6.1 25-17.8 28.8-21.3.7-.5 3.6-3 6.5-5.5s6.8-6 8.7-7.8c1.8-1.7 3.6-3.2 3.8-3.2.6 0 44.4-43.8 44.4-44.4 0-.3 1.2-1.8 2.6-3.3 1.5-1.5 5.2-6 8.3-9.8 3.1-3.9 5.8-7.2 6.1-7.5.3-.3 1.4-1.8 2.5-3.4 1.1-1.6 2.9-4.1 4-5.6s3.9-5.6 6.2-9.1c2.3-3.5 4.6-6.9 5.1-7.4 1.5-1.8 14.2-24.7 14.2-25.6 0-.5.5-.9 1-.9.6 0 1-.4 1-.9s2.2-5.5 4.8-11.2c2.6-5.7 5.6-12.4 6.6-14.9s2.4-5.7 3.2-7.2c.8-1.4 1.4-3.5 1.4-4.5s.4-2.3.8-2.9c.5-.5 1.9-4.1 3.1-7.9 1.2-3.9 2.5-7.7 2.8-8.5.4-.8.7-1.7.8-2 0-.3.9-3.2 1.9-6.5 1-3.3 1.9-6.7 2.1-7.5.2-.8 1-4.2 1.8-7.5 1.5-6 4.7-21.2 5.3-25 1.1-8 1.4-10.2 1.8-12 .3-1.9.9-7.3 2.3-22 .9-9.5.9-60 0-70-1-11.1-2.4-23.4-3.3-29-.3-1.7-.7-4.4-1-6-.2-1.7-.6-4.1-.9-5.5-.3-1.4-1-5-1.5-8-.6-3-1.9-8.9-3.1-13-1.1-4.1-2.2-8.3-2.4-9.3-.8-3.3-8.7-25.8-10.6-30.3-1.1-2.4-2-4.6-2-4.9 0-1-10.3-21.1-12.3-24-1.1-1.7-2-3.2-2-3.5.2-.8-14-23.2-16.1-25.4-.6-.6-2.1-2.8-3.5-4.8-1.4-2.1-2.8-3.8-3.2-3.8-.5 0-.8-.6-.8-1.4 0-.8-.4-1.6-.9-1.8-.4-.2-3.2-3.2-6.2-6.8-4.6-5.6-11.1-12.8-18.5-20.4-3.9-4.1-21.9-20.5-24.9-22.7-1.6-1.3-4-3.3-5.2-4.6-1.2-1.3-2.5-2.3-2.9-2.3-.6 0-5.9-4.2-9.5-7.5-.9-.8-2-1.5-2.5-1.5s-1.6-.9-2.4-1.9c-.7-1.1-1.7-1.8-2.2-1.5-.4.3-.8.1-.8-.3 0-.5-1.5-1.7-3.2-2.8-1.8-1-3.7-2.3-4.3-2.7-3.2-2.6-10.5-7.8-10.9-7.8-.5 0-7.8-4.7-15.8-10.2-1.5-1-3-1.8-3.3-1.8-.4 0-2.6-1.4-5-3-2.4-1.7-4.6-3-5-3-.3 0-2.2-1.1-4.3-2.3-4.8-3.1-11.5-6.8-23.2-13-5.2-2.7-10.1-5.4-10.7-6-.7-.5-1.3-.6-1.3-.2 0 .4-.6.2-1.4-.4-1.2-1-21.8-11.8-23.1-12.1-.3 0-6.2-2.8-13.2-6.1-7.1-3.3-14.6-6.8-16.8-7.8-2.2-1-6.2-2.9-9-4.1-2.7-1.2-8.6-3.8-13-5.7-4.4-2-9.8-4.3-12-5.3-11-4.9-32.6-14.2-33.5-14.5-.3-.1-3.1-1.3-6.4-2.8-3.2-1.5-6.1-2.7-6.3-2.7-.3 0-4-1.6-8.2-3.6-4.2-2-8-3.7-8.6-3.8-.5-.1-1.7-.6-2.5-1.1-.8-.5-1.9-1-2.5-1.1-.5-.1-3.9-1.5-7.5-3.2-13-6.1-27-12.2-28-12.2-.6 0-1-.5-1-1 0-.6-.7-1-1.5-1s-4.9-1.7-9.2-3.7c-4.3-2.1-8-3.8-8.3-3.9-.3 0-2.5-1-5-2.2-2.5-1.2-5-2.2-5.7-2.2-.6 0-1.3-.3-1.5-.8-.1-.4-3.7-2.3-7.8-4.1-4.1-1.9-13.1-6.1-20-9.4-6.9-3.2-16.5-7.8-21.5-10.2-27.9-13.2-71.1-35-72.5-36.5-1.1-1.3-19.9-9.9-25.8-11.9-8.9-3-19.4-3.6-25.8-1.3z"/></svg>