<?xml version="1.0" standalone="yes"?>
<svg xmlns="http://www.w3.org/2000/svg" width="233" height="275">
<path style="fill:none; stroke:none;" d="M0 0L0 275L233 275L233 0L0 0z"/>
<path style="fill:rgb(11, 135, 218); stroke:none;" d="M115 164C106.593 172.584 99.3813 180.826 89 187.189C85.0713 189.597 80.7624 192.651 76 192.852C70.8743 193.068 64.7072 190.251 60 188.384C55.0725 186.431 50.6913 183.48 47.7029 178.999C41.7232 170.032 44.8692 160.394 50.0656 152C52.0572 148.783 55.1089 145.652 56.2531 142C57.6963 137.393 53.7742 133.048 49.0039 134.623C44.2074 136.206 41.3859 141.944 39.0116 146C31.8224 158.281 29.4823 175.788 38.5579 187.999C43.0006 193.977 49.1918 197.139 56 199.681C61.1204 201.592 66.51 204.379 72 204.896C86.3471 206.247 100.857 195.961 111 186.829C116.832 181.579 122.329 175.441 126.826 169C128.616 166.436 130.533 163.295 129.378 160.055C128.235 156.848 124.807 155.59 122 154.223C116.702 151.643 111.303 149.301 106 146.742C89.8013 138.923 77.8393 130.551 74 112C81.6438 115.635 89.3592 119.111 97 122.745C105.871 126.963 116.361 133.698 126 135.605C130.99 136.592 136.792 132.548 133.218 127.213C131.196 124.195 127.161 122.956 124 121.576C118.304 119.088 112.598 116.443 107 113.742C81.3463 101.362 52.1083 93.6859 42 64C51.7629 68.0646 61.4773 72.6514 71 77.2585C82.7191 82.9281 95.453 90.7356 108 94.2106C112.995 95.5942 120.813 92.3259 116.392 86.213C114.458 83.5392 110.859 82.1664 108 80.7562C101.108 77.3563 94.019 74.267 87 71.1389C74.903 65.7477 63.036 59.8344 51 54.3086C40.4125 49.4479 29.9616 45.2411 22.3287 36C17.8292 30.5525 16.2183 24.4977 14 18C33.3903 25.9551 51.9587 35.9482 71 44.6914C90.7312 53.7513 114.358 61.4164 129.961 77.0394C137.485 84.573 142.843 94.0795 146.535 104C148.575 109.479 149.509 116.176 149.91 122C151.602 146.567 142.612 170.642 124.91 187.83C118.347 194.204 110.772 200.109 103 204.934C99.7579 206.947 94.0709 208.685 93.4267 213.043C92.7732 217.464 97.3741 221.686 99.6528 225C106.184 234.5 111.565 244.882 120.015 252.91C143.032 274.775 174.64 273.049 204 273C218.274 272.976 235.744 264.216 230.347 247C224.816 229.356 198.825 231.199 187.3 219.787C179.758 212.319 174.947 201.364 170.247 192C168.4 188.32 166.189 182.479 161.015 183.377C155.575 184.321 155.973 190.035 157.468 194C161.2 203.902 167.453 214.524 173.761 223C181.546 233.461 192.325 237.274 204 241.811C208.732 243.65 217 246.257 218.248 252.003C220.349 261.671 202.323 261 197 261C174.476 261 150.867 261.989 132.001 247.32C124.697 241.642 120.229 233.646 115.308 226C113.747 223.574 110.474 220.159 110.871 217.04C111.335 213.405 116.376 211.156 119 209.255C125.943 204.223 132.048 198.186 137.961 192C151.936 177.379 160.518 157.224 161.91 137C162.547 127.764 162.256 118.098 160.54 109C151.467 60.8924 102.428 44.7107 63 27.1389C49.9211 21.3101 36.8247 15.1193 24 8.75232C19.3182 6.42798 12.5234 1.44098 7.01929 2.41125C1.20433 3.43634 1.84296 10.5478 2.03935 15C2.56716 26.9658 7.86708 39.3397 16.0903 47.9853C19.7274 51.8092 26.0777 54.5177 28.5671 59.1844C30.122 62.0991 30.3839 65.8513 31.3441 69C33.5527 76.2417 36.198 82.8662 40.7608 89C44.1656 93.577 48.4071 97.4814 53 100.841C55.5987 102.742 59.2959 104.34 60.9722 107.21C62.4838 109.798 61.8498 113.151 62.3256 116C63.0984 120.626 64.7724 125.786 66.821 130C75.3672 147.578 96.8135 158.761 115 164z"/>
</svg>
